<svg id="Capa_1" enable-background="new 0 0 512 512" height="512" viewBox="0 0 512 512" width="512" xmlns="http://www.w3.org/2000/svg"><g><path d="m458 231.906 10.261-37.887c-2.896-17.626-7.78-34.583-14.414-50.633l-41.597-66.129c-42.462-47.418-104.154-77.257-172.815-77.257-31.889 0-62.274 6.436-89.928 18.081.001 0-130.507 62.419-130.507 213.825 0 128.078 92.358 221.761 220.435 221.761s218.565-93.684 218.565-221.761z" fill="#8bb3ea"/><path d="m468.265 194.018-78.349-11.75c-2.007-.293-3.995-.428-5.951-.415-21.891.149-32.714 33.397-29.714 44.397 4.567 16.745 7.185 22.213 24.188 25.695l8.812 1.805c11.66 2.388 25.402 17.628 26.25 29.5l-.135 83.761 45.285-59.357c8.218-23.735 12.691-49.215 12.691-75.749-.001-12.91-1.049-25.551-3.077-37.887z" fill="#b3e59f"/><path d="m455.551 307.111c-3.362-.441-6.769-.664-10.125-.664-3.63 0-7.224.266-10.761.781-5.128.747-9.869-2.785-10.297-7.949l-1.329-16.037c-1.375-19.193-15.497-35.297-34.351-39.163l-8.816-1.804c-9.682-1.982-16.937-10.256-17.64-20.124-.801-11.162 6.163-27.686 15.206-36.082 1.454-1.356 3.983-3.276 6.528-4.216-22.659.23-41.227 20.317-37.991 44.065 2.262 16.605 15.678 29.532 32.096 32.894l7.295 1.494c11.66 2.388 20.305 12.244 21.153 24.116l6.848 82.59 22.432-11.781c9.308-14.789 17.034-30.794 22.853-47.576-.002-.001-2.1-.413-3.101-.544z" fill="#95d6a4"/><path d="m264.282 438.964c-128.078 0-231.906-103.828-231.906-231.906 0-34.079 7.373-66.424 20.589-95.558l-13.478 2.934c-20.303 34.444-31.957 74.59-31.957 117.472 0 128.078 103.828 231.906 231.906 231.906 70.364 0 133.36-31.38 175.89-80.86-40.584 34.881-93.331 56.012-151.044 56.012z" fill="#739ad6"/><path d="m499.125 357.677c-8.387-18.258-25.805-31.531-45.727-34.141-23.41-3.068-44.566 7.608-56.599 25.06-12.033-17.451-33.189-28.127-56.598-25.06-3.165.415-6.266 1.098-9.278 2.028-15.949 4.924-32.256 35.436-32.256 35.436-20.667 54 72.113 128.387 95.333 143.5l15.507.629c32.966-22.796 116.825-88.222 89.618-147.452z" fill="#b3e59f"/><path d="m272 63.667 13.75 42.458 10.817.503 32.74-32.32c3.832-3.783 3.149-10.174-1.459-12.958-8.949-5.406-25.096-11.567-47.889-6.317z" fill="#b3e59f"/><path d="m315.416 341.418c4.042-6.303 9.49-11.678 15.507-15.854-15.86 4.962-29.425 16.821-36.449 32.113-29.942 65.184 74.631 137.873 97.851 152.986 2.739 1.783 6.209 1.783 8.949 0 2.118-1.378 4.926-3.247 8.233-5.533-22.73-15.091-137.52-95.989-94.091-163.712z" fill="#95d6a4"/><path d="m222.875 252.687-35.717-23.96-10.908.273-53.25 35.333c-9.569 6.661-12.317 12.182-3.667 20l20.333 19 2 63.833c.001.024 10.75 18.5 10.75 18.5l18.083 3.083 14.882-6.584c.209-.665.378-1.351.504-2.053l7.938-44.299c1.835-10.125 6.767-19.432 14.117-26.634l18.482-18.111c11.253-11.026 9.535-29.605-3.547-38.381z" fill="#b3e59f"/><path d="m215.419 73.418-16.728-7.169c-9.843-4.218-21.041 1.871-22.851 12.425l-.593 3.459-13.879-2.117c-14.345-2.188-23.633-16.323-19.949-30.358l8.088-31.578c-40.255 16.953-74.693 44.967-99.575 80.21l-.182 17.71 35.75 75.5c8.302 16.856 19.956 22.837 38.375 19.125l17.98-13.607-.468-1.762c-2.42-9.73 5.026-19.115 15.052-18.969l13.852.201c8.652.125 16.747-4.26 21.368-11.576l34.981-55.387c8.163-12.925 2.83-30.085-11.221-36.107z" fill="#b3e59f"/><path d="m412.25 77.257-23.733 27.998-13.929-3.134-13.422 11.046-1.333 31.667 20.402-5.414 73.606 3.966c-10.092-24.41-24.241-46.753-41.591-66.129z" fill="#b3e59f"/><g fill="#95d6a4"><path d="m171.171 224.265-53.823 36.717c-9.569 6.661-10.448 20.496-1.798 28.314l18.975 17.151 3.503 73.56c.364 6.693 5.667 12.06 12.354 12.506l18.096 1.207c7.708.514 14.642-4.354 16.903-11.553l-20.395-1.622c-8.319-.653-14.853-7.392-15.249-15.727l-2.723-57.238c-.21-4.406-2.168-8.546-5.441-11.504l-17.696-15.989c-1.771-1.61-1.933-3.575-1.86-4.602.065-1.019.461-2.936 2.297-4.214l62.842-42.544-6.706-4.499c-2.809-1.885-6.483-1.87-9.279.037z"/><path d="m143.934 204.838-2.079-7.82-20.427 4.58c-10.992 2.249-22.21-3.268-27.193-13.378l-44.303-89.93c-3.695 5.233-7.183 10.604-10.444 16.144l39.887 81.111c8.302 16.856 26.913 26.01 45.332 22.298l12.958-2.778c4.627-.993 7.484-5.653 6.269-10.227z"/><path d="m279.959 55.033c-3.021.695-6.122 1.581-9.375 2.704-4.29 1.482-6.677 6.123-5.287 10.443l12.806 39.791c1.891 5.874 9.311 7.692 13.703 3.357l4.76-4.7z"/><path d="m374.704 102.146-.115-.026c-7.901-1.767-15.924 2.427-18.982 9.924l-9.631 23.611c-2.788 6.835-.918 15.017 5.132 19.246 7.81 5.458 18.013 2.945 22.597-4.656l6.53-10.826-6.661-.366c-5.439-.299-9.113-5.675-7.416-10.851z"/></g></g></svg>