<svg id="Layer_1" enable-background="new 0 0 512 512" height="512" viewBox="0 0 512 512" width="512" xmlns="http://www.w3.org/2000/svg"><g><path d="m384.533 254.934c-16.326 0-31.971-6.398-43.637-17.508-4.095.958-8.303 1.441-12.596 1.441-30.419 0-55.167-24.748-55.167-55.167 0-4.29.483-8.499 1.442-12.595-11.111-11.665-17.509-27.311-17.509-43.638s6.398-31.974 17.509-43.638c-.959-4.096-1.442-8.305-1.442-12.595 0-30.419 24.748-55.167 55.167-55.167 4.292 0 8.501.483 12.596 1.441 11.667-11.112 27.311-17.508 43.637-17.508s31.971 6.396 43.637 17.508c4.095-.958 8.304-1.441 12.596-1.441 30.419 0 55.167 24.748 55.167 55.167 0 4.291-.483 8.499-1.442 12.595 11.111 11.665 17.509 27.31 17.509 43.638s-6.398 31.974-17.509 43.638c.959 4.097 1.442 8.305 1.442 12.595 0 30.419-24.748 55.167-55.167 55.167-4.293 0-8.501-.483-12.596-1.441-11.666 11.11-27.311 17.508-43.637 17.508z" fill="#dcf06e"/><path d="m384.533 254.934v-254.934c16.327 0 31.971 6.396 43.637 17.508 4.095-.958 8.304-1.441 12.596-1.441 30.419 0 55.167 24.748 55.167 55.167 0 4.291-.483 8.499-1.442 12.595 11.111 11.665 17.509 27.31 17.509 43.638s-6.398 31.974-17.509 43.638c.959 4.097 1.442 8.305 1.442 12.595 0 30.419-24.748 55.167-55.167 55.167-4.293 0-8.501-.483-12.596-1.441-11.666 11.11-27.311 17.508-43.637 17.508z" fill="#6ec373"/><path d="m427.273 116.86c-5.857-5.858-15.355-5.858-21.213 0l-6.527 6.527v-28.054c0-8.284-6.716-15-15-15s-15 6.716-15 15v28.054l-6.527-6.527c-5.857-5.858-15.355-5.858-21.213 0s-5.858 15.355 0 21.213l27.74 27.74v138.387c0 8.284 6.716 15 15 15s15-6.716 15-15v-138.387l27.74-27.74c5.858-5.858 5.858-15.355 0-21.213z" fill="#c85a46"/><path d="m497 289.2h-482c-8.284 0-15 6.716-15 15v192.8c0 8.284 6.716 15 15 15h482c8.284 0 15-6.716 15-15v-192.8c0-8.284-6.716-15-15-15z" fill="#41495a"/><path d="m512 497v-192.8c0-8.284-6.716-15-15-15h-241v222.8h241c8.284 0 15-6.716 15-15z" fill="#141e32"/><path d="m175.667 415.6h-32.133c-8.284 0-15-6.716-15-15s6.716-15 15-15h32.133c8.284 0 15 6.716 15 15s-6.716 15-15 15z" fill="#f5f5fa"/><path d="m368.467 415.6h-32.133c-8.284 0-15-6.716-15-15s6.716-15 15-15h32.133c8.284 0 15 6.716 15 15s-6.716 15-15 15z" fill="#c8cad2"/><path d="m79.267 415.6h-32.134c-8.284 0-15-6.716-15-15s6.716-15 15-15h32.133c8.284 0 15 6.716 15 15s-6.715 15-14.999 15z" fill="#f5f5fa"/><path d="m272.067 415.6h-32.134c-8.284 0-15-6.716-15-15s6.716-15 15-15h32.134c8.284 0 15 6.716 15 15s-6.716 15-15 15z" fill="#f5f5fa"/><path d="m464.867 415.6h-32.133c-8.284 0-15-6.716-15-15s6.716-15 15-15h32.133c8.284 0 15 6.716 15 15s-6.716 15-15 15z" fill="#c8cad2"/><path d="m175.667 126.4h-120.5c-30.419 0-55.167-24.748-55.167-55.167s24.748-55.167 55.167-55.167c6.462 0 12.78 1.111 18.737 3.265 11.769-12.288 28.008-19.331 45.53-19.331 23.275 0 44.068 12.503 55.08 32.147.384-.009.768-.014 1.153-.014 25.989 0 47.133 21.144 47.133 47.133s-21.144 47.134-47.133 47.134z" fill="#f5f5fa"/><g fill="#c8cad2"><path d="m175.667 126.4c25.989 0 47.133-21.144 47.133-47.133s-21.144-47.133-47.133-47.133c-.385 0-.769.005-1.153.014-11.013-19.645-31.805-32.148-55.08-32.148v126.4z"/><path d="m287.067 400.6c0-8.284-6.716-15-15-15h-16.067v30h16.067c8.284 0 15-6.716 15-15z"/></g></g></svg>